<svg xmlns="http://www.w3.org/2000/svg" xmlns:xlink="http://www.w3.org/1999/xlink" contentStyleType="text/css" data-diagram-type="SEQUENCE" height="1479px" preserveAspectRatio="none" style="width:1797px;height:1479px;background:#FFFFFF;" version="1.1" viewBox="0 0 1797 1479" width="1797px" zoomAndPan="magnify"><defs/><g><g><title>Gracz</title><rect fill="#FFFFFF" height="1298.5781" style="stroke:#181818;stroke-width:1;" width="10" x="48.1147" y="91.2969"/></g><g><title>MainMenu</title><rect fill="#FFFFFF" height="71.2656" style="stroke:#181818;stroke-width:1;" width="10" x="185.4629" y="136.5625"/></g><g><title>MainMenu</title><rect fill="#FFFFFF" height="142.5313" style="stroke:#181818;stroke-width:1;" width="10" x="185.4629" y="243.9609"/></g><g><title>Hut</title><rect fill="#FFFFFF" height="71.2656" style="stroke:#181818;stroke-width:1;" width="10" x="788.3066" y="463.8906"/></g><g><title>Hut</title><rect fill="#FFFFFF" height="87.3984" style="stroke:#181818;stroke-width:1;" width="10" x="788.3066" y="593.4219"/></g><g><title>Hut</title><rect fill="#FFFFFF" height="58.2656" style="stroke:#181818;stroke-width:1;" width="10" x="788.3066" y="741.0859"/></g><g><title>Item</title><rect fill="#FFFFFF" height="29.1328" style="stroke:#181818;stroke-width:1;" width="10" x="1008.9736" y="1188.0781"/></g><g><title>World</title><rect fill="#FFFFFF" height="29.1328" style="stroke:#181818;stroke-width:1;" width="10" x="1069.3784" y="799.3516"/></g><g><title>World</title><rect fill="#FFFFFF" height="29.1328" style="stroke:#181818;stroke-width:1;" width="10" x="1069.3784" y="1098.6797"/></g><g><title>World</title><rect fill="#FFFFFF" height="97.3984" style="stroke:#181818;stroke-width:1;" width="10" x="1069.3784" y="1277.4766"/></g><g><title>Board</title><rect fill="#FFFFFF" height="29.1328" style="stroke:#181818;stroke-width:1;" width="10" x="1290.6362" y="828.4844"/></g><g><title>PlayerCharacter</title><rect fill="#FFFFFF" height="29.1328" style="stroke:#181818;stroke-width:1;" width="10" x="1391.6738" y="949.0156"/></g><g><title>PlayerCharacter</title><rect fill="#FFFFFF" height="29.1328" style="stroke:#181818;stroke-width:1;" width="10" x="1391.6738" y="1009.2813"/></g><g><title>PlayerCharacter</title><rect fill="#FFFFFF" height="29.1328" style="stroke:#181818;stroke-width:1;" width="10" x="1391.6738" y="1069.5469"/></g><g><title>PlayerCharacter</title><rect fill="#FFFFFF" height="58.2656" style="stroke:#181818;stroke-width:1;" width="10" x="1391.6738" y="1158.9453"/></g><g><title>PlayerCharacter</title><rect fill="#FFFFFF" height="29.1328" style="stroke:#181818;stroke-width:1;" width="10" x="1391.6738" y="1248.3438"/></g><rect fill="none" height="117.5313" style="stroke:#000000;stroke-width:1.5;" width="532.3662" x="20" y="98.2969"/><rect fill="none" height="471.125" style="stroke:#000000;stroke-width:1.5;" width="1664.2349" x="10" y="401.4922"/><rect fill="none" height="263.1953" style="stroke:#000000;stroke-width:1.5;" width="1644.2349" x="20" y="425.625"/><rect fill="none" height="162.7969" style="stroke:#000000;stroke-width:1.5;" width="1576.4097" x="20" y="702.8203"/><rect fill="none" height="495.2578" style="stroke:#000000;stroke-width:1.5;" width="1781.0171" x="10" y="886.6172"/><rect fill="none" height="464.125" style="stroke:#000000;stroke-width:1.5;" width="1761.0171" x="20" y="910.75"/><rect fill="none" height="75.3984" style="stroke:#000000;stroke-width:1.5;" width="1228.6509" x="542.3662" y="1292.4766"/><g><title>Gracz</title><rect fill="#000000" fill-opacity="0.00000" height="1317.5781" width="8" x="49.1147" y="81.2969"/><line style="stroke:#181818;stroke-width:0.5;stroke-dasharray:5.0,5.0;" x1="53" x2="53" y1="81.2969" y2="1398.875"/></g><g><title>MainMenu</title><rect fill="#000000" fill-opacity="0.00000" height="1317.5781" width="8" x="186.4629" y="81.2969"/><line style="stroke:#181818;stroke-width:0.5;stroke-dasharray:5.0,5.0;" x1="189.5332" x2="189.5332" y1="81.2969" y2="1398.875"/></g><g><title>Global Options</title><rect fill="#000000" fill-opacity="0.00000" height="1317.5781" width="8" x="479.8027" y="81.2969"/><line style="stroke:#181818;stroke-width:0.5;stroke-dasharray:5.0,5.0;" x1="483.2393" x2="483.2393" y1="81.2969" y2="1398.875"/></g><g><title>GameState</title><rect fill="#000000" fill-opacity="0.00000" height="1317.5781" width="8" x="594.7344" y="81.2969"/><line style="stroke:#181818;stroke-width:0.5;stroke-dasharray:5.0,5.0;" x1="598.3662" x2="598.3662" y1="81.2969" y2="1398.875"/></g><g><title>Hut</title><rect fill="#000000" fill-opacity="0.00000" height="1317.5781" width="8" x="789.3066" y="81.2969"/><line style="stroke:#181818;stroke-width:0.5;stroke-dasharray:5.0,5.0;" x1="792.8618" x2="792.8618" y1="81.2969" y2="1398.875"/></g><g><title>Hut.IV</title><rect fill="#000000" fill-opacity="0.00000" height="1317.5781" width="8" x="948.5161" y="81.2969"/><line style="stroke:#181818;stroke-width:0.5;stroke-dasharray:5.0,5.0;" x1="951.9932" x2="951.9932" y1="81.2969" y2="1398.875"/></g><g><title>Item</title><rect fill="#000000" fill-opacity="0.00000" height="1317.5781" width="8" x="1009.9736" y="81.2969"/><line style="stroke:#181818;stroke-width:0.5;stroke-dasharray:5.0,5.0;" x1="1013.0391" x2="1013.0391" y1="81.2969" y2="1398.875"/></g><g><title>World</title><rect fill="#000000" fill-opacity="0.00000" height="1317.5781" width="8" x="1070.3784" y="81.2969"/><line style="stroke:#181818;stroke-width:0.5;stroke-dasharray:5.0,5.0;" x1="1073.9082" x2="1073.9082" y1="81.2969" y2="1398.875"/></g><g><title>Board</title><rect fill="#000000" fill-opacity="0.00000" height="1317.5781" width="8" x="1291.6362" y="81.2969"/><line style="stroke:#181818;stroke-width:0.5;stroke-dasharray:5.0,5.0;" x1="1294.9404" x2="1294.9404" y1="81.2969" y2="1398.875"/></g><g><title>PlayerCharacter</title><rect fill="#000000" fill-opacity="0.00000" height="1317.5781" width="8" x="1392.6738" y="81.2969"/><line style="stroke:#181818;stroke-width:0.5;stroke-dasharray:5.0,5.0;" x1="1396.332" x2="1396.332" y1="81.2969" y2="1398.875"/></g><g><title>BoardCell</title><rect fill="#000000" fill-opacity="0.00000" height="1317.5781" width="8" x="1541.6299" y="81.2969"/><line style="stroke:#181818;stroke-width:0.5;stroke-dasharray:5.0,5.0;" x1="1544.8501" x2="1544.8501" y1="81.2969" y2="1398.875"/></g><g><title>Potion</title><rect fill="#000000" fill-opacity="0.00000" height="1317.5781" width="8" x="1621.3223" y="81.2969"/><line style="stroke:#181818;stroke-width:0.5;stroke-dasharray:5.0,5.0;" x1="1624.4097" x2="1624.4097" y1="81.2969" y2="1398.875"/></g><g><title>Enemy</title><rect fill="#000000" fill-opacity="0.00000" height="1317.5781" width="8" x="1691.3623" y="81.2969"/><line style="stroke:#181818;stroke-width:0.5;stroke-dasharray:5.0,5.0;" x1="1695.2349" x2="1695.2349" y1="81.2969" y2="1398.875"/></g><g><title>H</title><rect fill="#000000" fill-opacity="0.00000" height="1317.5781" width="8" x="1744.7534" y="81.2969"/><line style="stroke:#181818;stroke-width:0.5;stroke-dasharray:5.0,5.0;" x1="1748.4897" x2="1748.4897" y1="81.2969" y2="1398.875"/></g><g class="participant participant-head" data-participant="Gracz"><text fill="#000000" font-family="sans-serif" font-size="14" lengthAdjust="spacing" textLength="40.2295" x="30" y="77.9951">Gracz</text><ellipse cx="53.1147" cy="13.5" fill="#E2E2F0" rx="8" ry="8" style="stroke:#181818;stroke-width:0.5;"/><path d="M53.1147,21.5 L53.1147,48.5 M40.1147,29.5 L66.1147,29.5 M53.1147,48.5 L40.1147,63.5 M53.1147,48.5 L66.1147,63.5" fill="none" style="stroke:#181818;stroke-width:0.5;"/></g><g class="participant participant-tail" data-participant="Gracz"><text fill="#000000" font-family="sans-serif" font-size="14" lengthAdjust="spacing" textLength="40.2295" x="30" y="1410.8701">Gracz</text><ellipse cx="53.1147" cy="1422.6719" fill="#E2E2F0" rx="8" ry="8" style="stroke:#181818;stroke-width:0.5;"/><path d="M53.1147,1430.6719 L53.1147,1457.6719 M40.1147,1438.6719 L66.1147,1438.6719 M53.1147,1457.6719 L40.1147,1472.6719 M53.1147,1457.6719 L66.1147,1472.6719" fill="none" style="stroke:#181818;stroke-width:0.5;"/></g><g class="participant participant-head" data-participant="MM"><rect fill="#E2E2F0" height="30.2969" rx="2.5" ry="2.5" style="stroke:#181818;stroke-width:0.5;" width="85.8594" x="147.5332" y="50"/><text fill="#000000" font-family="sans-serif" font-size="14" lengthAdjust="spacing" textLength="71.8594" x="154.5332" y="69.9951">MainMenu</text></g><g class="participant participant-tail" data-participant="MM"><rect fill="#E2E2F0" height="30.2969" rx="2.5" ry="2.5" style="stroke:#181818;stroke-width:0.5;" width="85.8594" x="147.5332" y="1397.875"/><text fill="#000000" font-family="sans-serif" font-size="14" lengthAdjust="spacing" textLength="71.8594" x="154.5332" y="1417.8701">MainMenu</text></g><g class="participant participant-head" data-participant="OP"><rect fill="#E2E2F0" height="30.2969" rx="2.5" ry="2.5" style="stroke:#181818;stroke-width:0.5;" width="117.127" x="425.2393" y="50"/><text fill="#000000" font-family="sans-serif" font-size="14" lengthAdjust="spacing" textLength="103.127" x="432.2393" y="69.9951">Global Options</text></g><g class="participant participant-tail" data-participant="OP"><rect fill="#E2E2F0" height="30.2969" rx="2.5" ry="2.5" style="stroke:#181818;stroke-width:0.5;" width="117.127" x="425.2393" y="1397.875"/><text fill="#000000" font-family="sans-serif" font-size="14" lengthAdjust="spacing" textLength="103.127" x="432.2393" y="1417.8701">Global Options</text></g><g class="participant participant-head" data-participant="GS"><rect fill="#E2E2F0" height="30.2969" rx="2.5" ry="2.5" style="stroke:#181818;stroke-width:0.5;" width="92.7363" x="552.3662" y="50"/><text fill="#000000" font-family="sans-serif" font-size="14" lengthAdjust="spacing" textLength="78.7363" x="559.3662" y="69.9951">GameState</text></g><g class="participant participant-tail" data-participant="GS"><rect fill="#E2E2F0" height="30.2969" rx="2.5" ry="2.5" style="stroke:#181818;stroke-width:0.5;" width="92.7363" x="552.3662" y="1397.875"/><text fill="#000000" font-family="sans-serif" font-size="14" lengthAdjust="spacing" textLength="78.7363" x="559.3662" y="1417.8701">GameState</text></g><g class="participant participant-head" data-participant="HT"><rect fill="#E2E2F0" height="30.2969" rx="2.5" ry="2.5" style="stroke:#181818;stroke-width:0.5;" width="38.8896" x="773.8618" y="50"/><text fill="#000000" font-family="sans-serif" font-size="14" lengthAdjust="spacing" textLength="24.8896" x="780.8618" y="69.9951">Hut</text></g><g class="participant participant-tail" data-participant="HT"><rect fill="#E2E2F0" height="30.2969" rx="2.5" ry="2.5" style="stroke:#181818;stroke-width:0.5;" width="38.8896" x="773.8618" y="1397.875"/><text fill="#000000" font-family="sans-serif" font-size="14" lengthAdjust="spacing" textLength="24.8896" x="780.8618" y="1417.8701">Hut</text></g><g class="participant participant-head" data-participant="HIV"><rect fill="#E2E2F0" height="30.2969" rx="2.5" ry="2.5" style="stroke:#181818;stroke-width:0.5;" width="57.0459" x="923.9932" y="50"/><text fill="#000000" font-family="sans-serif" font-size="14" lengthAdjust="spacing" textLength="43.0459" x="930.9932" y="69.9951">Hut.IV</text></g><g class="participant participant-tail" data-participant="HIV"><rect fill="#E2E2F0" height="30.2969" rx="2.5" ry="2.5" style="stroke:#181818;stroke-width:0.5;" width="57.0459" x="923.9932" y="1397.875"/><text fill="#000000" font-family="sans-serif" font-size="14" lengthAdjust="spacing" textLength="43.0459" x="930.9932" y="1417.8701">Hut.IV</text></g><g class="participant participant-head" data-participant="I"><rect fill="#E2E2F0" height="30.2969" rx="2.5" ry="2.5" style="stroke:#181818;stroke-width:0.5;" width="45.8691" x="991.0391" y="50"/><text fill="#000000" font-family="sans-serif" font-size="14" lengthAdjust="spacing" textLength="31.8691" x="998.0391" y="69.9951">Item</text></g><g class="participant participant-tail" data-participant="I"><rect fill="#E2E2F0" height="30.2969" rx="2.5" ry="2.5" style="stroke:#181818;stroke-width:0.5;" width="45.8691" x="991.0391" y="1397.875"/><text fill="#000000" font-family="sans-serif" font-size="14" lengthAdjust="spacing" textLength="31.8691" x="998.0391" y="1417.8701">Item</text></g><g class="participant participant-head" data-participant="W"><rect fill="#E2E2F0" height="30.2969" rx="2.5" ry="2.5" style="stroke:#181818;stroke-width:0.5;" width="54.9404" x="1046.9082" y="50"/><text fill="#000000" font-family="sans-serif" font-size="14" lengthAdjust="spacing" textLength="40.9404" x="1053.9082" y="69.9951">World</text></g><g class="participant participant-tail" data-participant="W"><rect fill="#E2E2F0" height="30.2969" rx="2.5" ry="2.5" style="stroke:#181818;stroke-width:0.5;" width="54.9404" x="1046.9082" y="1397.875"/><text fill="#000000" font-family="sans-serif" font-size="14" lengthAdjust="spacing" textLength="40.9404" x="1053.9082" y="1417.8701">World</text></g><g class="participant participant-head" data-participant="B"><rect fill="#E2E2F0" height="30.2969" rx="2.5" ry="2.5" style="stroke:#181818;stroke-width:0.5;" width="55.3916" x="1267.9404" y="50"/><text fill="#000000" font-family="sans-serif" font-size="14" lengthAdjust="spacing" textLength="41.3916" x="1274.9404" y="69.9951">Board</text></g><g class="participant participant-tail" data-participant="B"><rect fill="#E2E2F0" height="30.2969" rx="2.5" ry="2.5" style="stroke:#181818;stroke-width:0.5;" width="55.3916" x="1267.9404" y="1397.875"/><text fill="#000000" font-family="sans-serif" font-size="14" lengthAdjust="spacing" textLength="41.3916" x="1274.9404" y="1417.8701">Board</text></g><g class="participant participant-head" data-participant="PC"><rect fill="#E2E2F0" height="30.2969" rx="2.5" ry="2.5" style="stroke:#181818;stroke-width:0.5;" width="126.6836" x="1333.332" y="50"/><text fill="#000000" font-family="sans-serif" font-size="14" lengthAdjust="spacing" textLength="112.6836" x="1340.332" y="69.9951">PlayerCharacter</text></g><g class="participant participant-tail" data-participant="PC"><rect fill="#E2E2F0" height="30.2969" rx="2.5" ry="2.5" style="stroke:#181818;stroke-width:0.5;" width="126.6836" x="1333.332" y="1397.875"/><text fill="#000000" font-family="sans-serif" font-size="14" lengthAdjust="spacing" textLength="112.6836" x="1340.332" y="1417.8701">PlayerCharacter</text></g><g class="participant participant-head" data-participant="BC"><rect fill="#E2E2F0" height="30.2969" rx="2.5" ry="2.5" style="stroke:#181818;stroke-width:0.5;" width="81.5596" x="1504.8501" y="50"/><text fill="#000000" font-family="sans-serif" font-size="14" lengthAdjust="spacing" textLength="67.5596" x="1511.8501" y="69.9951">BoardCell</text></g><g class="participant participant-tail" data-participant="BC"><rect fill="#E2E2F0" height="30.2969" rx="2.5" ry="2.5" style="stroke:#181818;stroke-width:0.5;" width="81.5596" x="1504.8501" y="1397.875"/><text fill="#000000" font-family="sans-serif" font-size="14" lengthAdjust="spacing" textLength="67.5596" x="1511.8501" y="1417.8701">BoardCell</text></g><g class="participant participant-head" data-participant="POT"><rect fill="#E2E2F0" height="30.2969" rx="2.5" ry="2.5" style="stroke:#181818;stroke-width:0.5;" width="57.8252" x="1596.4097" y="50"/><text fill="#000000" font-family="sans-serif" font-size="14" lengthAdjust="spacing" textLength="43.8252" x="1603.4097" y="69.9951">Potion</text></g><g class="participant participant-tail" data-participant="POT"><rect fill="#E2E2F0" height="30.2969" rx="2.5" ry="2.5" style="stroke:#181818;stroke-width:0.5;" width="57.8252" x="1596.4097" y="1397.875"/><text fill="#000000" font-family="sans-serif" font-size="14" lengthAdjust="spacing" textLength="43.8252" x="1603.4097" y="1417.8701">Potion</text></g><g class="participant participant-head" data-participant="E"><rect fill="#E2E2F0" height="30.2969" rx="2.5" ry="2.5" style="stroke:#181818;stroke-width:0.5;" width="62.2549" x="1664.2349" y="50"/><text fill="#000000" font-family="sans-serif" font-size="14" lengthAdjust="spacing" textLength="48.2549" x="1671.2349" y="69.9951">Enemy</text></g><g class="participant participant-tail" data-participant="E"><rect fill="#E2E2F0" height="30.2969" rx="2.5" ry="2.5" style="stroke:#181818;stroke-width:0.5;" width="62.2549" x="1664.2349" y="1397.875"/><text fill="#000000" font-family="sans-serif" font-size="14" lengthAdjust="spacing" textLength="48.2549" x="1671.2349" y="1417.8701">Enemy</text></g><g class="participant participant-head" data-participant="H"><rect fill="#E2E2F0" height="30.2969" rx="2.5" ry="2.5" style="stroke:#181818;stroke-width:0.5;" width="24.5273" x="1736.4897" y="50"/><text fill="#000000" font-family="sans-serif" font-size="14" lengthAdjust="spacing" textLength="10.5273" x="1743.4897" y="69.9951">H</text></g><g class="participant participant-tail" data-participant="H"><rect fill="#E2E2F0" height="30.2969" rx="2.5" ry="2.5" style="stroke:#181818;stroke-width:0.5;" width="24.5273" x="1736.4897" y="1397.875"/><text fill="#000000" font-family="sans-serif" font-size="14" lengthAdjust="spacing" textLength="10.5273" x="1743.4897" y="1417.8701">H</text></g><g><title>Gracz</title><rect fill="#FFFFFF" height="1298.5781" style="stroke:#181818;stroke-width:1;" width="10" x="48.1147" y="91.2969"/></g><g><title>MainMenu</title><rect fill="#FFFFFF" height="71.2656" style="stroke:#181818;stroke-width:1;" width="10" x="185.4629" y="136.5625"/></g><g><title>MainMenu</title><rect fill="#FFFFFF" height="142.5313" style="stroke:#181818;stroke-width:1;" width="10" x="185.4629" y="243.9609"/></g><g><title>Hut</title><rect fill="#FFFFFF" height="71.2656" style="stroke:#181818;stroke-width:1;" width="10" x="788.3066" y="463.8906"/></g><g><title>Hut</title><rect fill="#FFFFFF" height="87.3984" style="stroke:#181818;stroke-width:1;" width="10" x="788.3066" y="593.4219"/></g><g><title>Hut</title><rect fill="#FFFFFF" height="58.2656" style="stroke:#181818;stroke-width:1;" width="10" x="788.3066" y="741.0859"/></g><g><title>Item</title><rect fill="#FFFFFF" height="29.1328" style="stroke:#181818;stroke-width:1;" width="10" x="1008.9736" y="1188.0781"/></g><g><title>World</title><rect fill="#FFFFFF" height="29.1328" style="stroke:#181818;stroke-width:1;" width="10" x="1069.3784" y="799.3516"/></g><g><title>World</title><rect fill="#FFFFFF" height="29.1328" style="stroke:#181818;stroke-width:1;" width="10" x="1069.3784" y="1098.6797"/></g><g><title>World</title><rect fill="#FFFFFF" height="97.3984" style="stroke:#181818;stroke-width:1;" width="10" x="1069.3784" y="1277.4766"/></g><g><title>Board</title><rect fill="#FFFFFF" height="29.1328" style="stroke:#181818;stroke-width:1;" width="10" x="1290.6362" y="828.4844"/></g><g><title>PlayerCharacter</title><rect fill="#FFFFFF" height="29.1328" style="stroke:#181818;stroke-width:1;" width="10" x="1391.6738" y="949.0156"/></g><g><title>PlayerCharacter</title><rect fill="#FFFFFF" height="29.1328" style="stroke:#181818;stroke-width:1;" width="10" x="1391.6738" y="1009.2813"/></g><g><title>PlayerCharacter</title><rect fill="#FFFFFF" height="29.1328" style="stroke:#181818;stroke-width:1;" width="10" x="1391.6738" y="1069.5469"/></g><g><title>PlayerCharacter</title><rect fill="#FFFFFF" height="58.2656" style="stroke:#181818;stroke-width:1;" width="10" x="1391.6738" y="1158.9453"/></g><g><title>PlayerCharacter</title><rect fill="#FFFFFF" height="29.1328" style="stroke:#181818;stroke-width:1;" width="10" x="1391.6738" y="1248.3438"/></g><path d="M20,98.2969 L89.4512,98.2969 L89.4512,105.4297 L79.4512,115.4297 L20,115.4297 L20,98.2969" fill="#EEEEEE" style="stroke:#000000;stroke-width:1.5;"/><rect fill="none" height="117.5313" style="stroke:#000000;stroke-width:1.5;" width="532.3662" x="20" y="98.2969"/><text fill="#000000" font-family="sans-serif" font-size="13" font-weight="bold" lengthAdjust="spacing" textLength="24.4512" x="35" y="111.3638">opt</text><text fill="#000000" font-family="sans-serif" font-size="11" font-weight="bold" lengthAdjust="spacing" textLength="85.0889" x="104.4512" y="110.5073">[Menu g&#322;&#243;we]</text><g class="message" data-participant-1="Gracz" data-participant-2="MM"><polygon fill="#181818" points="173.4629,132.5625,183.4629,136.5625,173.4629,140.5625,177.4629,136.5625" style="stroke:#181818;stroke-width:1;"/><line style="stroke:#181818;stroke-width:1;" x1="58.1147" x2="179.4629" y1="136.5625" y2="136.5625"/><text fill="#000000" font-family="sans-serif" font-size="13" lengthAdjust="spacing" textLength="108.3481" x="65.1147" y="131.4966">Wyb&#243;r "Options"</text></g><g class="message" data-participant-1="MM" data-participant-2="MM"><line style="stroke:#181818;stroke-width:1;" x1="195.4629" x2="237.4629" y1="165.6953" y2="165.6953"/><line style="stroke:#181818;stroke-width:1;" x1="237.4629" x2="237.4629" y1="165.6953" y2="178.6953"/><line style="stroke:#181818;stroke-width:1;" x1="196.4629" x2="237.4629" y1="178.6953" y2="178.6953"/><polygon fill="#181818" points="206.4629,174.6953,196.4629,178.6953,206.4629,182.6953,202.4629,178.6953" style="stroke:#181818;stroke-width:1;"/><text fill="#000000" font-family="sans-serif" font-size="13" lengthAdjust="spacing" textLength="211.9482" x="202.4629" y="160.6294">swapowanie paneli menu i opcje</text></g><g class="message" data-participant-1="MM" data-participant-2="OP"><polygon fill="#181818" points="471.8027,203.8281,481.8027,207.8281,471.8027,211.8281,475.8027,207.8281" style="stroke:#181818;stroke-width:1;"/><line style="stroke:#181818;stroke-width:1;" x1="190.4629" x2="477.8027" y1="207.8281" y2="207.8281"/><text fill="#000000" font-family="sans-serif" font-size="13" lengthAdjust="spacing" textLength="162.6777" x="197.4629" y="202.7622">Zapisz zmiany w opcjach</text></g><g class="message" data-participant-1="Gracz" data-participant-2="MM"><polygon fill="#181818" points="173.4629,239.9609,183.4629,243.9609,173.4629,247.9609,177.4629,243.9609" style="stroke:#181818;stroke-width:1;"/><line style="stroke:#181818;stroke-width:1;" x1="58.1147" x2="179.4629" y1="243.9609" y2="243.9609"/><text fill="#000000" font-family="sans-serif" font-size="13" lengthAdjust="spacing" textLength="89.9463" x="65.1147" y="238.895">Wyb&#243;r "Start"</text></g><g class="message" data-participant-1="MM" data-participant-2="MM"><line style="stroke:#181818;stroke-width:1;" x1="195.4629" x2="237.4629" y1="273.0938" y2="273.0938"/><line style="stroke:#181818;stroke-width:1;" x1="237.4629" x2="237.4629" y1="273.0938" y2="286.0938"/><line style="stroke:#181818;stroke-width:1;" x1="196.4629" x2="237.4629" y1="286.0938" y2="286.0938"/><polygon fill="#181818" points="206.4629,282.0938,196.4629,286.0938,206.4629,290.0938,202.4629,286.0938" style="stroke:#181818;stroke-width:1;"/><text fill="#000000" font-family="sans-serif" font-size="13" lengthAdjust="spacing" textLength="259.3398" x="202.4629" y="268.0278">swapowanie paneli menu i saveselector</text></g><g class="message" data-participant-1="MM" data-participant-2="MM"><line style="stroke:#181818;stroke-width:1;" x1="195.4629" x2="237.4629" y1="315.2266" y2="315.2266"/><line style="stroke:#181818;stroke-width:1;" x1="237.4629" x2="237.4629" y1="315.2266" y2="328.2266"/><line style="stroke:#181818;stroke-width:1;" x1="196.4629" x2="237.4629" y1="328.2266" y2="328.2266"/><polygon fill="#181818" points="206.4629,324.2266,196.4629,328.2266,206.4629,332.2266,202.4629,328.2266" style="stroke:#181818;stroke-width:1;"/><text fill="#000000" font-family="sans-serif" font-size="13" lengthAdjust="spacing" textLength="76.6606" x="202.4629" y="310.1606">Wyb&#243;r save</text></g><g class="message" data-participant-1="MM" data-participant-2="GS"><polygon fill="#181818" points="586.7344,353.3594,596.7344,357.3594,586.7344,361.3594,590.7344,357.3594" style="stroke:#181818;stroke-width:1;"/><line style="stroke:#181818;stroke-width:1;" x1="195.4629" x2="592.7344" y1="357.3594" y2="357.3594"/><text fill="#000000" font-family="sans-serif" font-size="13" lengthAdjust="spacing" textLength="139.3501" x="202.4629" y="352.2935">wczytaj dane z $save</text></g><g class="message" data-participant-1="MM" data-participant-2="HT"><polygon fill="#181818" points="781.3066,382.4922,791.3066,386.4922,781.3066,390.4922,785.3066,386.4922" style="stroke:#181818;stroke-width:1;"/><line style="stroke:#181818;stroke-width:1;" x1="190.4629" x2="787.3066" y1="386.4922" y2="386.4922"/><text fill="#000000" font-family="sans-serif" font-size="13" lengthAdjust="spacing" textLength="96.7446" x="197.4629" y="381.4263">Za&#322;aduj chatk&#281;</text></g><path d="M10,401.4922 L86.624,401.4922 L86.624,408.625 L76.624,418.625 L10,418.625 L10,401.4922" fill="#EEEEEE" style="stroke:#000000;stroke-width:1.5;"/><rect fill="none" height="471.125" style="stroke:#000000;stroke-width:1.5;" width="1664.2349" x="10" y="401.4922"/><text fill="#000000" font-family="sans-serif" font-size="13" font-weight="bold" lengthAdjust="spacing" textLength="31.624" x="25" y="414.5591">loop</text><text fill="#000000" font-family="sans-serif" font-size="11" font-weight="bold" lengthAdjust="spacing" textLength="49.7256" x="101.624" y="413.7026">[Chatki]</text><path d="M20,425.625 L89.4512,425.625 L89.4512,432.7578 L79.4512,442.7578 L20,442.7578 L20,425.625" fill="#EEEEEE" style="stroke:#000000;stroke-width:1.5;"/><rect fill="none" height="263.1953" style="stroke:#000000;stroke-width:1.5;" width="1644.2349" x="20" y="425.625"/><text fill="#000000" font-family="sans-serif" font-size="13" font-weight="bold" lengthAdjust="spacing" textLength="24.4512" x="35" y="438.6919">opt</text><text fill="#000000" font-family="sans-serif" font-size="11" font-weight="bold" lengthAdjust="spacing" textLength="117.4282" x="104.4512" y="437.8354">[warzenie mikstur]</text><g class="message" data-participant-1="Gracz" data-participant-2="HT"><polygon fill="#181818" points="776.3066,459.8906,786.3066,463.8906,776.3066,467.8906,780.3066,463.8906" style="stroke:#181818;stroke-width:1;"/><line style="stroke:#181818;stroke-width:1;" x1="58.1147" x2="782.3066" y1="463.8906" y2="463.8906"/><text fill="#000000" font-family="sans-serif" font-size="13" lengthAdjust="spacing" textLength="156.3618" x="65.1147" y="458.8247">wyb&#243;r "uwarz miksture"</text></g><g class="message" data-participant-1="HT" data-participant-2="HT"><line style="stroke:#181818;stroke-width:1;" x1="798.3066" x2="840.3066" y1="493.0234" y2="493.0234"/><line style="stroke:#181818;stroke-width:1;" x1="840.3066" x2="840.3066" y1="493.0234" y2="506.0234"/><line style="stroke:#181818;stroke-width:1;" x1="799.3066" x2="840.3066" y1="506.0234" y2="506.0234"/><polygon fill="#181818" points="809.3066,502.0234,799.3066,506.0234,809.3066,510.0234,805.3066,506.0234" style="stroke:#181818;stroke-width:1;"/><text fill="#000000" font-family="sans-serif" font-size="13" lengthAdjust="spacing" textLength="123.8364" x="805.3066" y="487.9575">swapowanie paneli</text></g><g class="message" data-participant-1="HT" data-participant-2="HIV"><polygon fill="#181818" points="940.5161,531.1563,950.5161,535.1563,940.5161,539.1563,944.5161,535.1563" style="stroke:#181818;stroke-width:1;"/><line style="stroke:#181818;stroke-width:1;" x1="793.3066" x2="946.5161" y1="535.1563" y2="535.1563"/><text fill="#000000" font-family="sans-serif" font-size="13" lengthAdjust="spacing" textLength="130.2095" x="800.3066" y="530.0903">wyswietl ekwipunek</text></g><g class="message" data-participant-1="Gracz" data-participant-2="HIV"><polygon fill="#181818" points="940.5161,560.2891,950.5161,564.2891,940.5161,568.2891,944.5161,564.2891" style="stroke:#181818;stroke-width:1;"/><line style="stroke:#181818;stroke-width:1;" x1="58.1147" x2="946.5161" y1="564.2891" y2="564.2891"/><text fill="#000000" font-family="sans-serif" font-size="13" lengthAdjust="spacing" textLength="112.8359" x="65.1147" y="559.2231">wybiera sk&#322;adniki</text></g><g class="message" data-participant-1="Gracz" data-participant-2="HT"><polygon fill="#181818" points="776.3066,589.4219,786.3066,593.4219,776.3066,597.4219,780.3066,593.4219" style="stroke:#181818;stroke-width:1;"/><line style="stroke:#181818;stroke-width:1;" x1="58.1147" x2="782.3066" y1="593.4219" y2="593.4219"/><text fill="#000000" font-family="sans-serif" font-size="13" lengthAdjust="spacing" textLength="114.8354" x="65.1147" y="588.356">wybiera "uwuarz"</text></g><g class="message" data-participant-1="HT" data-participant-2="POT"><polygon fill="#181818" points="1613.3223,618.5547,1623.3223,622.5547,1613.3223,626.5547,1617.3223,622.5547" style="stroke:#181818;stroke-width:1;"/><line style="stroke:#181818;stroke-width:1;" x1="798.3066" x2="1619.3223" y1="622.5547" y2="622.5547"/><text fill="#000000" font-family="sans-serif" font-size="13" lengthAdjust="spacing" textLength="105.5806" x="805.3066" y="617.4888">"uwarz mikture"</text></g><g class="message" data-participant-1="POT" data-participant-2="HT"><polygon fill="#181818" points="809.3066,647.6875,799.3066,651.6875,809.3066,655.6875,805.3066,651.6875" style="stroke:#181818;stroke-width:1;"/><line style="stroke:#181818;stroke-width:1;stroke-dasharray:2.0,2.0;" x1="803.3066" x2="1624.3223" y1="651.6875" y2="651.6875"/><text fill="#000000" font-family="sans-serif" font-size="13" lengthAdjust="spacing" textLength="107.269" x="815.3066" y="646.6216">zwraca mikstur&#281;</text></g><g class="message" data-participant-1="HT" data-participant-2="GS"><polygon fill="#181818" points="609.7344,676.8203,599.7344,680.8203,609.7344,684.8203,605.7344,680.8203" style="stroke:#181818;stroke-width:1;"/><line style="stroke:#181818;stroke-width:1;" x1="603.7344" x2="792.3066" y1="680.8203" y2="680.8203"/><text fill="#000000" font-family="sans-serif" font-size="13" lengthAdjust="spacing" textLength="165.5723" x="615.7344" y="675.7544">zast&#261;p sk&#322;adniki misktur&#261;</text></g><path d="M20,702.8203 L89.4512,702.8203 L89.4512,709.9531 L79.4512,719.9531 L20,719.9531 L20,702.8203" fill="#EEEEEE" style="stroke:#000000;stroke-width:1.5;"/><rect fill="none" height="162.7969" style="stroke:#000000;stroke-width:1.5;" width="1576.4097" x="20" y="702.8203"/><text fill="#000000" font-family="sans-serif" font-size="13" font-weight="bold" lengthAdjust="spacing" textLength="24.4512" x="35" y="715.8872">opt</text><text fill="#000000" font-family="sans-serif" font-size="11" font-weight="bold" lengthAdjust="spacing" textLength="146.8833" x="104.4512" y="715.0308">[rozpocznij nowy dzien]</text><g class="message" data-participant-1="Gracz" data-participant-2="HT"><polygon fill="#181818" points="776.3066,737.0859,786.3066,741.0859,776.3066,745.0859,780.3066,741.0859" style="stroke:#181818;stroke-width:1;"/><line style="stroke:#181818;stroke-width:1;" x1="58.1147" x2="782.3066" y1="741.0859" y2="741.0859"/><text fill="#000000" font-family="sans-serif" font-size="13" lengthAdjust="spacing" textLength="141.1655" x="65.1147" y="736.02">wybiera "nowy dzie&#324;"</text></g><g class="message" data-participant-1="HT" data-participant-2="GS"><polygon fill="#181818" points="609.7344,766.2188,599.7344,770.2188,609.7344,774.2188,605.7344,770.2188" style="stroke:#181818;stroke-width:1;"/><line style="stroke:#181818;stroke-width:1;" x1="603.7344" x2="787.3066" y1="770.2188" y2="770.2188"/><text fill="#000000" font-family="sans-serif" font-size="13" lengthAdjust="spacing" textLength="131.9932" x="615.7344" y="765.1528">wywo&#322;anie next_day</text></g><g class="message" data-participant-1="HT" data-participant-2="W"><polygon fill="#181818" points="1057.3784,795.3516,1067.3784,799.3516,1057.3784,803.3516,1061.3784,799.3516" style="stroke:#181818;stroke-width:1;"/><line style="stroke:#181818;stroke-width:1;" x1="793.3066" x2="1063.3784" y1="799.3516" y2="799.3516"/><text fill="#000000" font-family="sans-serif" font-size="13" lengthAdjust="spacing" textLength="86.4805" x="800.3066" y="794.2856">za&#322;aduj world</text></g><g class="message" data-participant-1="W" data-participant-2="B"><polygon fill="#181818" points="1278.6362,824.4844,1288.6362,828.4844,1278.6362,832.4844,1282.6362,828.4844" style="stroke:#181818;stroke-width:1;"/><line style="stroke:#181818;stroke-width:1;" x1="1074.3784" x2="1284.6362" y1="828.4844" y2="828.4844"/><text fill="#000000" font-family="sans-serif" font-size="13" lengthAdjust="spacing" textLength="192.2578" x="1081.3784" y="823.4185">Generowanie planszy (Board)</text></g><g class="message" data-participant-1="B" data-participant-2="BC"><polygon fill="#181818" points="1533.6299,853.6172,1543.6299,857.6172,1533.6299,861.6172,1537.6299,857.6172" style="stroke:#181818;stroke-width:1;"/><line style="stroke:#181818;stroke-width:1;" x1="1295.6362" x2="1539.6299" y1="857.6172" y2="857.6172"/><text fill="#000000" font-family="sans-serif" font-size="13" lengthAdjust="spacing" textLength="220.9937" x="1302.6362" y="852.5513">Tworzenie p&#243;l planszy (BoardCell)</text></g><path d="M10,886.6172 L86.624,886.6172 L86.624,893.75 L76.624,903.75 L10,903.75 L10,886.6172" fill="#EEEEEE" style="stroke:#000000;stroke-width:1.5;"/><rect fill="none" height="495.2578" style="stroke:#000000;stroke-width:1.5;" width="1781.0171" x="10" y="886.6172"/><text fill="#000000" font-family="sans-serif" font-size="13" font-weight="bold" lengthAdjust="spacing" textLength="31.624" x="25" y="899.6841">loop</text><text fill="#000000" font-family="sans-serif" font-size="11" font-weight="bold" lengthAdjust="spacing" textLength="52.0137" x="101.624" y="898.8276">[&#346;wiata]</text><path d="M20,910.75 L84.4429,910.75 L84.4429,917.8828 L74.4429,927.8828 L20,927.8828 L20,910.75" fill="#EEEEEE" style="stroke:#000000;stroke-width:1.5;"/><rect fill="none" height="464.125" style="stroke:#000000;stroke-width:1.5;" width="1761.0171" x="20" y="910.75"/><text fill="#000000" font-family="sans-serif" font-size="13" font-weight="bold" lengthAdjust="spacing" textLength="19.4429" x="35" y="923.8169">alt</text><text fill="#000000" font-family="sans-serif" font-size="11" font-weight="bold" lengthAdjust="spacing" textLength="146.2173" x="99.4429" y="922.9604">[Interakcje ze &#347;wiatem]</text><g class="message" data-participant-1="Gracz" data-participant-2="PC"><polygon fill="#181818" points="1379.6738,945.0156,1389.6738,949.0156,1379.6738,953.0156,1383.6738,949.0156" style="stroke:#181818;stroke-width:1;"/><line style="stroke:#181818;stroke-width:1;" x1="58.1147" x2="1385.6738" y1="949.0156" y2="949.0156"/><text fill="#000000" font-family="sans-serif" font-size="13" lengthAdjust="spacing" textLength="101.7974" x="65.1147" y="943.9497">Naciska klawisz</text></g><g class="message" data-participant-1="PC" data-participant-2="W"><polygon fill="#181818" points="1085.3784,974.1484,1075.3784,978.1484,1085.3784,982.1484,1081.3784,978.1484" style="stroke:#181818;stroke-width:1;"/><line style="stroke:#181818;stroke-width:1;" x1="1079.3784" x2="1395.6738" y1="978.1484" y2="978.1484"/><text fill="#000000" font-family="sans-serif" font-size="13" lengthAdjust="spacing" textLength="42.0278" x="1091.3784" y="973.0825">chodzi</text></g><line style="stroke:#000000;stroke-width:1;stroke-dasharray:2.0,2.0;" x1="20" x2="1781.0171" y1="987.1484" y2="987.1484"/><g class="message" data-participant-1="Gracz" data-participant-2="PC"><polygon fill="#181818" points="1379.6738,1005.2813,1389.6738,1009.2813,1379.6738,1013.2813,1383.6738,1009.2813" style="stroke:#181818;stroke-width:1;"/><line style="stroke:#181818;stroke-width:1;" x1="58.1147" x2="1385.6738" y1="1009.2813" y2="1009.2813"/><text fill="#000000" font-family="sans-serif" font-size="13" lengthAdjust="spacing" textLength="101.7974" x="65.1147" y="1004.2153">Naciska klawisz</text></g><g class="message" data-participant-1="PC" data-participant-2="E"><polygon fill="#181818" points="1683.3623,1034.4141,1693.3623,1038.4141,1683.3623,1042.4141,1687.3623,1038.4141" style="stroke:#181818;stroke-width:1;"/><line style="stroke:#181818;stroke-width:1;" x1="1396.6738" x2="1689.3623" y1="1038.4141" y2="1038.4141"/><text fill="#000000" font-family="sans-serif" font-size="13" lengthAdjust="spacing" textLength="43.875" x="1403.6738" y="1033.3481">walczy</text></g><line style="stroke:#000000;stroke-width:1;stroke-dasharray:2.0,2.0;" x1="20" x2="1781.0171" y1="1047.4141" y2="1047.4141"/><g class="message" data-participant-1="Gracz" data-participant-2="PC"><polygon fill="#181818" points="1379.6738,1065.5469,1389.6738,1069.5469,1379.6738,1073.5469,1383.6738,1069.5469" style="stroke:#181818;stroke-width:1;"/><line style="stroke:#181818;stroke-width:1;" x1="58.1147" x2="1385.6738" y1="1069.5469" y2="1069.5469"/><text fill="#000000" font-family="sans-serif" font-size="13" lengthAdjust="spacing" textLength="101.7974" x="65.1147" y="1064.481">Naciska klawisz</text></g><g class="message" data-participant-1="PC" data-participant-2="W"><polygon fill="#181818" points="1090.3784,1094.6797,1080.3784,1098.6797,1090.3784,1102.6797,1086.3784,1098.6797" style="stroke:#181818;stroke-width:1;"/><line style="stroke:#181818;stroke-width:1;" x1="1084.3784" x2="1395.6738" y1="1098.6797" y2="1098.6797"/><text fill="#000000" font-family="sans-serif" font-size="13" lengthAdjust="spacing" textLength="160.4941" x="1096.3784" y="1093.6138">Podniesienie przedmiotu</text></g><g class="message" data-participant-1="W" data-participant-2="GS"><polygon fill="#181818" points="609.7344,1123.8125,599.7344,1127.8125,609.7344,1131.8125,605.7344,1127.8125" style="stroke:#181818;stroke-width:1;"/><line style="stroke:#181818;stroke-width:1;" x1="603.7344" x2="1073.3784" y1="1127.8125" y2="1127.8125"/><text fill="#000000" font-family="sans-serif" font-size="13" lengthAdjust="spacing" textLength="227.1382" x="615.7344" y="1122.7466">Dodanie przedmiotu do ekwipunku</text></g><line style="stroke:#000000;stroke-width:1;stroke-dasharray:2.0,2.0;" x1="20" x2="1781.0171" y1="1136.8125" y2="1136.8125"/><g class="message" data-participant-1="Gracz" data-participant-2="PC"><polygon fill="#181818" points="1379.6738,1154.9453,1389.6738,1158.9453,1379.6738,1162.9453,1383.6738,1158.9453" style="stroke:#181818;stroke-width:1;"/><line style="stroke:#181818;stroke-width:1;" x1="58.1147" x2="1385.6738" y1="1158.9453" y2="1158.9453"/><text fill="#000000" font-family="sans-serif" font-size="13" lengthAdjust="spacing" textLength="101.7974" x="65.1147" y="1153.8794">Naciska klawisz</text></g><g class="message" data-participant-1="PC" data-participant-2="I"><polygon fill="#181818" points="1029.9736,1184.0781,1019.9736,1188.0781,1029.9736,1192.0781,1025.9736,1188.0781" style="stroke:#181818;stroke-width:1;"/><line style="stroke:#181818;stroke-width:1;" x1="1023.9736" x2="1390.6738" y1="1188.0781" y2="1188.0781"/><text fill="#000000" font-family="sans-serif" font-size="13" lengthAdjust="spacing" textLength="121.1577" x="1035.9736" y="1183.0122">U&#380;ycie przedmiotu</text></g><g class="message" data-participant-1="I" data-participant-2="PC"><polygon fill="#181818" points="1384.6738,1213.2109,1394.6738,1217.2109,1384.6738,1221.2109,1388.6738,1217.2109" style="stroke:#181818;stroke-width:1;"/><line style="stroke:#181818;stroke-width:1;stroke-dasharray:2.0,2.0;" x1="1013.9736" x2="1390.6738" y1="1217.2109" y2="1217.2109"/><text fill="#000000" font-family="sans-serif" font-size="13" lengthAdjust="spacing" textLength="111.5664" x="1020.9736" y="1212.145">efekt przedmiotu</text></g><line style="stroke:#000000;stroke-width:1;stroke-dasharray:2.0,2.0;" x1="20" x2="1781.0171" y1="1226.2109" y2="1226.2109"/><g class="message" data-participant-1="Gracz" data-participant-2="PC"><polygon fill="#181818" points="1379.6738,1244.3438,1389.6738,1248.3438,1379.6738,1252.3438,1383.6738,1248.3438" style="stroke:#181818;stroke-width:1;"/><line style="stroke:#181818;stroke-width:1;" x1="58.1147" x2="1385.6738" y1="1248.3438" y2="1248.3438"/><text fill="#000000" font-family="sans-serif" font-size="13" lengthAdjust="spacing" textLength="101.7974" x="65.1147" y="1243.2778">Naciska klawisz</text></g><g class="message" data-participant-1="Gracz" data-participant-2="W"><polygon fill="#181818" points="1057.3784,1273.4766,1067.3784,1277.4766,1057.3784,1281.4766,1061.3784,1277.4766" style="stroke:#181818;stroke-width:1;"/><line style="stroke:#181818;stroke-width:1;" x1="58.1147" x2="1063.3784" y1="1277.4766" y2="1277.4766"/><text fill="#000000" font-family="sans-serif" font-size="13" lengthAdjust="spacing" textLength="103.6001" x="65.1147" y="1272.4106">Wejd&#378; do chatki</text></g><path d="M542.3662,1292.4766 L611.8174,1292.4766 L611.8174,1299.6094 L601.8174,1309.6094 L542.3662,1309.6094 L542.3662,1292.4766" fill="#EEEEEE" style="stroke:#000000;stroke-width:1.5;"/><rect fill="none" height="75.3984" style="stroke:#000000;stroke-width:1.5;" width="1228.6509" x="542.3662" y="1292.4766"/><text fill="#000000" font-family="sans-serif" font-size="13" font-weight="bold" lengthAdjust="spacing" textLength="24.4512" x="557.3662" y="1305.5435">opt</text><text fill="#000000" font-family="sans-serif" font-size="11" font-weight="bold" lengthAdjust="spacing" textLength="118.5078" x="626.8174" y="1304.687">[Chatka w zasi&#281;gu]</text><g class="message" data-participant-1="W" data-participant-2="GS"><polygon fill="#181818" points="609.7344,1326.7422,599.7344,1330.7422,609.7344,1334.7422,605.7344,1330.7422" style="stroke:#181818;stroke-width:1;"/><line style="stroke:#181818;stroke-width:1;" x1="603.7344" x2="1068.3784" y1="1330.7422" y2="1330.7422"/><text fill="#000000" font-family="sans-serif" font-size="13" lengthAdjust="spacing" textLength="75.6768" x="615.7344" y="1325.6763">Koniec dnia</text></g><g class="message" data-participant-1="W" data-participant-2="H"><polygon fill="#181818" points="1736.7534,1355.875,1746.7534,1359.875,1736.7534,1363.875,1740.7534,1359.875" style="stroke:#181818;stroke-width:1;"/><line style="stroke:#181818;stroke-width:1;" x1="1079.3784" x2="1742.7534" y1="1359.875" y2="1359.875"/><text fill="#000000" font-family="sans-serif" font-size="13" lengthAdjust="spacing" textLength="96.7446" x="1086.3784" y="1354.8091">Za&#322;aduj chatk&#281;</text></g><!--SRC=[hLJ1RjD04BtxAqOL1pY43yYX4WbLQg7GI2srn0LDxQ7TsDcrx7MDVQpeHnG-epV4hSr_CREsazWfbK0z99BtpRnzysPcCRGcWrc6OUsbc5aLgXIrXOCvAZqdNHm0vZ2Vzy5POYumWPFKAgDp5tAo68JWYaujMdBexBIF7XVMdH-VxPs_zSyRo3_lOxwbbKFy_dbWiYHoGD079WQp1fZqWKM25MNJA-IoBMKkP35z8dbAIT8G3D25aSgRn9D13KUQLfM3ZZplNMZLDRlGMcnI2-8gNAvl7kvByffp61sonsC8gek7-mmEEcCzsEHp2_ZN1UObfgP4hGZuKaeKh8HLWKd39NMH9uinVCPKvJNKAuMwWj85O7ZbmNl27MxIaGVUasAuYvazy7QLpEUZmsTbv7XDEIKaq-LjPRUKWhQdirCOGndMbSKbHCm1DRmI7Dg0upEfONs3KR64y0fj_7ZdHJtjdfSOay9KGEN9L4A9MKqYQwNYt1QP1rkZXR5iQoiai0iYzXisn3oQm7-ZGudVAxJ3_7CXoqj5DW6AIvKMcc80ndT4EYudO9DoeIX3o6EfJ2lHlGaus-8ii625JmlZoHllbD1LmCUZXgKkcH6xyjYt9czsoX3czl4stH70ORbmFDxkQ-Vfu8faU3DJfoQijLg2DcK5KQr8SyAUlOtyJSpwkqWR5C7_pGn8HcbOYHYiwPlz4c6r3GX4Rpi2fMoxG4Dxjzo1V0MIE1d3Z3HbNUiIr7bTmMktt6y6B46FP29V4qSo7SCPNziCLFfmdmo8v9KOaasSQMwjckbS_oWLMlG04mk-vcS7OrvLg0dMFmMYrNO45dpbHmov8GXnWYLlyEu4y5l5RPwE3jcOyCgml_sM2Kv9JlzEUCITm8JNyMK8s-Oj34yOvQena8sCLihOOl-EVW-3RZZUcmZxgH2PRjlY0K_m_rBzCNnQ_wx2eSfDhCyVFl1sWP3ILuhjN-lnNyB2DfGz36WPhNz9tM7xpZrldYohUn6H7ttUTlLuTrcunMWUW0-67Gs16uFjwV4J3osuATxpjvdiFm00]--></g></svg>
